<svg width="212" height="63" viewBox="0 0 212 63" fill="none" xmlns="http://www.w3.org/2000/svg">
<path d="M26.664 54.184C22.504 54.184 18.856 53.16 15.72 51.112C12.648 49 9.896 46.216 7.464 42.76C5.032 39.24 2.696 35.368 0.456 31.144L4.104 29.032C5.768 32.04 7.464 34.952 9.192 37.768C10.984 40.52 13.032 42.792 15.336 44.584C17.64 46.312 20.456 47.176 23.784 47.176C25.896 47.176 27.88 46.728 29.736 45.832C31.656 44.872 33.224 43.56 34.44 41.896C35.656 40.232 36.264 38.28 36.264 36.04C36.264 33.672 35.464 31.88 33.864 30.664C32.328 29.448 30.504 28.84 28.392 28.84C26.6 28.84 24.744 29.224 22.824 29.992C20.904 30.696 19.208 31.4 17.736 32.104L13.608 25.096C15.336 24.136 17.224 23.272 19.272 22.504C21.384 21.736 23.528 21.352 25.704 21.352C26.024 21.352 26.312 21.352 26.568 21.352C28.296 20.264 29.608 18.984 30.504 17.512C31.4 15.976 31.848 14.44 31.848 12.904C31.848 11.24 31.336 9.864 30.312 8.776C29.288 7.688 27.656 7.144 25.416 7.144C23.624 7.144 21.32 7.592 18.504 8.488C15.688 9.32 12.968 10.568 10.344 12.232L6.12 5.032C8.936 3.368 11.752 2.152 14.568 1.384C17.448 0.615997 19.912 0.231998 21.96 0.231998C24.904 0.231998 27.4 0.871998 29.448 2.152C31.496 3.368 33.16 4.936 34.44 6.856C35.72 8.776 36.648 10.76 37.224 12.808C37.864 14.792 38.184 16.552 38.184 18.088C38.184 19.112 38.024 20.2 37.704 21.352C37.384 22.504 36.616 23.752 35.4 25.096C35.784 25.416 36.2 25.864 36.648 26.44C37.736 27.656 38.984 28.744 40.392 29.704C41.864 30.664 44.008 31.144 46.824 31.144C50.344 31.144 53.32 30.088 55.752 27.976L55.944 8.68H45.672L42.408 2.44V1.48H71.976L75.24 7.72V8.68H64.008L64.2 61.96H63.24L55.56 56.968L55.656 37.672C55.144 37.864 54.6 37.992 54.024 38.056C53.448 38.12 52.84 38.152 52.2 38.152C50.408 38.152 48.616 37.832 46.824 37.192C45.096 36.552 43.592 35.816 42.312 34.984L41.928 35.176C42.312 36.072 42.568 37 42.696 37.96C42.888 38.856 42.984 39.72 42.984 40.552C42.984 43.176 42.248 45.512 40.776 47.56C39.368 49.608 37.448 51.24 35.016 52.456C32.584 53.608 29.8 54.184 26.664 54.184ZM100.307 47.944C96.5305 47.944 92.9465 46.952 89.5545 44.968C86.2265 42.92 83.3785 40.2 81.0105 36.808C78.7065 33.416 77.1705 29.608 76.4025 25.384C81.3945 24.168 85.0425 22.856 87.3465 21.448C89.7145 19.976 90.8985 18.152 90.8985 15.976C90.8985 15.144 90.6745 14.088 90.2265 12.808C89.8425 11.528 89.1385 10.152 88.1145 8.68H73.1385L69.8745 2.44V1.48H127.859L131.123 7.72V8.68H119.891L120.083 61.96H119.123L111.443 56.968L111.539 44.488C109.619 45.768 107.699 46.664 105.779 47.176C103.859 47.688 102.035 47.944 100.307 47.944ZM111.827 8.68H93.3945C96.3385 13.16 97.8105 16.968 97.8105 20.104C97.8105 22.536 96.7865 24.68 94.7385 26.536C92.7545 28.392 89.4265 29.96 84.7545 31.24C84.8185 33.16 85.3625 34.952 86.3865 36.616C87.4745 38.216 88.8825 39.496 90.6105 40.456C92.4025 41.416 94.3865 41.896 96.5625 41.896C98.7385 41.896 101.075 41.352 103.571 40.264C106.067 39.176 108.755 37.448 111.635 35.08L111.827 8.68ZM156.758 8.68H145.526L145.718 62.44H144.758L137.078 57.448L137.462 8.68H129.014L125.749 2.44V1.48H153.494L156.758 7.72V8.68ZM211.439 8.68H200.207L200.399 61.96H199.439L191.759 56.968L191.951 32.872H175.055C175.055 36.584 174.863 39.176 174.479 40.648C174.095 42.12 173.167 42.856 171.695 42.856C170.351 42.856 168.911 42.44 167.375 41.608C165.839 40.776 164.399 39.688 163.055 38.344C161.775 37 160.719 35.528 159.887 33.928C159.055 32.328 158.639 30.792 158.639 29.32C158.639 27.528 159.343 26.44 160.751 26.056C162.223 25.608 164.207 25.384 166.703 25.384C167.855 25.384 169.743 25.416 172.367 25.48C174.991 25.48 177.999 25.544 181.391 25.672C184.847 25.736 188.367 25.8 191.951 25.864L192.143 8.68H154.607L151.343 2.44V1.48H208.175L211.439 7.72V8.68Z" fill="black"/>
</svg>
